<svg width="60" height="60" viewBox="0 0 60 60" fill="none" xmlns="http://www.w3.org/2000/svg">
<g clip-path="url(#clip0_90_47)">
<path d="M34.6958 30.7087C34.6782 31.6327 34.3866 32.5306 33.8581 33.2887C33.3296 34.0468 32.5879 34.6309 31.7271 34.9669C30.8662 35.303 29.925 35.3759 29.0226 35.1764C28.1203 34.977 27.2975 34.5141 26.6585 33.8464C26.0196 33.1788 25.5932 32.3365 25.4335 31.4263C25.2738 30.5161 25.3879 29.5789 25.7614 28.7336C26.135 27.8884 26.751 27.173 27.5316 26.6783C28.3121 26.1835 29.2219 25.9316 30.1458 25.9546C31.3734 26 32.5351 26.5218 33.3845 27.4093C34.2339 28.2969 34.7042 29.4803 34.6958 30.7087Z" fill="#111111"/>
<path d="M38.0583 16.0962H22.2354C20.6697 16.0962 19.1682 16.7181 18.0611 17.8252C16.954 18.9323 16.332 20.4339 16.332 21.9995V38.1783C16.332 38.9535 16.4847 39.7212 16.7814 40.4374C17.0781 41.1536 17.5129 41.8044 18.0611 42.3526C18.6093 42.9007 19.26 43.3356 19.9763 43.6322C20.6925 43.9289 21.4601 44.0816 22.2354 44.0816H38.0583C38.8335 44.0816 39.6012 43.9289 40.3174 43.6322C41.0336 43.3356 41.6844 42.9007 42.2326 42.3526C42.7807 41.8044 43.2156 41.1536 43.5122 40.4374C43.8089 39.7212 43.9616 38.9535 43.9616 38.1783V22.0287C43.9647 21.2512 43.8143 20.4808 43.5191 19.7615C43.2239 19.0423 42.7896 18.3884 42.2412 17.8373C41.6928 17.2861 41.041 16.8487 40.3232 16.5499C39.6054 16.2511 38.8358 16.097 38.0583 16.0962ZM30.1454 38.6216C28.579 38.657 27.0376 38.2248 25.718 37.3803C24.3983 36.5358 23.3602 35.3173 22.7361 33.8802C22.112 32.4431 21.9303 30.8526 22.2141 29.3118C22.4979 27.771 23.2344 26.3496 24.3295 25.2292C25.4247 24.1088 26.8288 23.34 28.3628 23.0211C29.8967 22.7023 31.4909 22.8476 32.9419 23.4388C34.3928 24.0299 35.6348 25.0399 36.5092 26.34C37.3836 27.64 37.8508 29.1711 37.8512 30.7379C37.8631 31.7616 37.6733 32.7776 37.2924 33.7279C36.9116 34.6782 36.3472 35.5441 35.6316 36.2762C34.916 37.0084 34.0632 37.5923 33.1218 37.9947C32.1805 38.3972 31.1691 38.6102 30.1454 38.6216ZM38.7087 22.857C38.5162 22.8571 38.3257 22.8187 38.1483 22.7442C37.9708 22.6697 37.81 22.5605 37.6753 22.423C37.5406 22.2856 37.4346 22.1227 37.3637 21.9438C37.2927 21.7649 37.2581 21.5736 37.262 21.3812C37.262 20.9898 37.4175 20.6144 37.6943 20.3376C37.9711 20.0608 38.3464 19.9054 38.7379 19.9054C39.1293 19.9054 39.5047 20.0608 39.7814 20.3376C40.0582 20.6144 40.2137 20.9898 40.2137 21.3812C40.2195 21.5895 40.1802 21.7967 40.0985 21.9885C40.0168 22.1802 39.8946 22.3521 39.7403 22.4922C39.5861 22.6324 39.4033 22.7375 39.2046 22.8005C39.0059 22.8635 38.796 22.8827 38.5891 22.857H38.7087Z" fill="#111111"/>
<path d="M30.1459 0.833373C22.4104 0.794696 14.9764 3.83051 9.47921 9.27297C3.98205 14.7154 0.87205 22.1187 0.833373 29.8542C0.794696 37.5897 3.83051 45.0237 9.27297 50.5209C14.7154 56.018 22.1187 59.128 29.8542 59.1667C33.6844 59.1859 37.4809 58.4504 41.0269 57.0023C44.5729 55.5543 47.799 53.4219 50.5209 50.7271C53.2428 48.0323 55.4073 44.8277 56.8907 41.2964C58.3742 37.765 59.1476 33.9761 59.1667 30.1459C59.1859 26.3157 58.4504 22.5192 57.0023 18.9732C55.5543 15.4272 53.4219 12.2011 50.7271 9.47921C48.0323 6.75729 44.8277 4.59282 41.2964 3.10936C37.765 1.62591 33.9761 0.852524 30.1459 0.833373ZM47.8588 37.8809C47.8669 39.1894 47.6152 40.4865 47.1183 41.697C46.6214 42.9075 45.8892 44.0074 44.964 44.9328C44.0389 45.8582 42.9392 46.5908 41.7289 47.088C40.5185 47.5853 39.2215 47.8374 37.913 47.8296H22.3846C21.0763 47.837 19.7796 47.5847 18.5694 47.0876C17.3592 46.5904 16.2597 45.8581 15.3344 44.9331C14.4092 44.0081 13.6766 42.9088 13.1791 41.6988C12.6815 40.4888 12.4289 39.1921 12.4359 37.8838V22.3525C12.4277 21.044 12.6794 19.7469 13.1763 18.5364C13.6732 17.3259 14.4055 16.226 15.3306 15.3006C16.2558 14.3752 17.3554 13.6426 18.5658 13.1454C19.7762 12.6481 21.0732 12.396 22.3817 12.4038H37.913C39.2212 12.396 40.518 12.648 41.7282 13.1451C42.9384 13.6422 44.0379 14.3745 44.963 15.2996C45.8881 16.2247 46.6204 17.3242 47.1175 18.5344C47.6146 19.7446 47.8665 21.0414 47.8588 22.3496V37.8809Z" fill="#111111"/>
</g>
<defs>
<clipPath id="clip0_90_47">
<rect width="60" height="60" fill="white"/>
</clipPath>
</defs>
</svg>
