<svg width="70" height="70" viewBox="0 0 70 70" fill="none" xmlns="http://www.w3.org/2000/svg">
<path d="M39.6958 35.7087C39.6782 36.6327 39.3866 37.5306 38.8581 38.2887C38.3296 39.0468 37.5879 39.6309 36.7271 39.9669C35.8662 40.303 34.925 40.3759 34.0226 40.1764C33.1203 39.977 32.2975 39.5141 31.6585 38.8464C31.0196 38.1788 30.5932 37.3365 30.4335 36.4263C30.2738 35.5161 30.3879 34.5789 30.7614 33.7336C31.135 32.8884 31.751 32.173 32.5316 31.6783C33.3121 31.1835 34.2219 30.9316 35.1458 30.9546C36.3734 31 37.5351 31.5218 38.3845 32.4093C39.2339 33.2969 39.7042 34.4803 39.6958 35.7087Z" fill="#111111"/>
<path d="M43.0583 21.0962H27.2354C25.6697 21.0962 24.1682 21.7181 23.0611 22.8252C21.954 23.9323 21.332 25.4339 21.332 26.9995V43.1783C21.332 43.9535 21.4847 44.7212 21.7814 45.4374C22.0781 46.1536 22.5129 46.8044 23.0611 47.3526C23.6093 47.9007 24.26 48.3356 24.9763 48.6322C25.6925 48.9289 26.4601 49.0816 27.2354 49.0816H43.0583C43.8335 49.0816 44.6012 48.9289 45.3174 48.6322C46.0336 48.3356 46.6844 47.9007 47.2326 47.3526C47.7807 46.8044 48.2156 46.1536 48.5122 45.4374C48.8089 44.7212 48.9616 43.9535 48.9616 43.1783V27.0287C48.9647 26.2512 48.8143 25.4808 48.5191 24.7615C48.2239 24.0423 47.7896 23.3884 47.2412 22.8373C46.6928 22.2861 46.041 21.8487 45.3232 21.5499C44.6054 21.2511 43.8358 21.097 43.0583 21.0962ZM35.1454 43.6216C33.579 43.657 32.0376 43.2248 30.718 42.3803C29.3983 41.5358 28.3602 40.3173 27.7361 38.8802C27.112 37.4431 26.9303 35.8526 27.2141 34.3118C27.4979 32.771 28.2344 31.3496 29.3295 30.2292C30.4247 29.1088 31.8288 28.34 33.3628 28.0211C34.8967 27.7023 36.4909 27.8476 37.9419 28.4388C39.3928 29.0299 40.6348 30.0399 41.5092 31.34C42.3836 32.64 42.8508 34.1711 42.8512 35.7379C42.8631 36.7616 42.6733 37.7776 42.2924 38.7279C41.9116 39.6782 41.3472 40.5441 40.6316 41.2762C39.916 42.0084 39.0632 42.5923 38.1218 42.9947C37.1805 43.3972 36.1691 43.6102 35.1454 43.6216ZM43.7087 27.857C43.5162 27.8571 43.3257 27.8187 43.1483 27.7442C42.9708 27.6697 42.81 27.5605 42.6753 27.423C42.5406 27.2856 42.4346 27.1227 42.3637 26.9438C42.2927 26.7649 42.2581 26.5736 42.262 26.3812C42.262 25.9898 42.4175 25.6144 42.6943 25.3376C42.9711 25.0608 43.3464 24.9054 43.7379 24.9054C44.1293 24.9054 44.5047 25.0608 44.7814 25.3376C45.0582 25.6144 45.2137 25.9898 45.2137 26.3812C45.2195 26.5895 45.1802 26.7967 45.0985 26.9885C45.0168 27.1802 44.8946 27.352 44.7403 27.4922C44.5861 27.6324 44.4033 27.7375 44.2046 27.8005C44.0059 27.8635 43.796 27.8827 43.5891 27.857H43.7087Z" fill="#111111"/>
<path d="M35.1459 5.83337C27.4104 5.7947 19.9764 8.83051 14.4792 14.273C8.98205 19.7154 5.87205 27.1187 5.83337 34.8542C5.7947 42.5897 8.83051 50.0237 14.273 55.5209C19.7154 61.018 27.1187 64.128 34.8542 64.1667C38.6844 64.1859 42.4809 63.4504 46.0269 62.0023C49.5729 60.5543 52.799 58.4219 55.5209 55.7271C58.2428 53.0323 60.4073 49.8277 61.8907 46.2964C63.3742 42.765 64.1476 38.9761 64.1667 35.1459C64.1859 31.3157 63.4504 27.5192 62.0023 23.9732C60.5543 20.4272 58.4219 17.2011 55.7271 14.4792C53.0323 11.7573 49.8277 9.59282 46.2964 8.10936C42.765 6.62591 38.9761 5.85252 35.1459 5.83337ZM52.8588 42.8809C52.8669 44.1894 52.6152 45.4865 52.1183 46.697C51.6214 47.9075 50.8892 49.0074 49.964 49.9328C49.0389 50.8582 47.9392 51.5908 46.7289 52.088C45.5185 52.5853 44.2215 52.8374 42.913 52.8296H27.3846C26.0763 52.837 24.7796 52.5847 23.5694 52.0876C22.3592 51.5904 21.2597 50.8581 20.3344 49.9331C19.4092 49.0081 18.6766 47.9088 18.1791 46.6988C17.6815 45.4888 17.4289 44.1921 17.4359 42.8838V27.3525C17.4277 26.044 17.6794 24.7469 18.1763 23.5364C18.6732 22.3259 19.4055 21.226 20.3306 20.3006C21.2558 19.3752 22.3554 18.6426 23.5658 18.1454C24.7762 17.6481 26.0732 17.396 27.3817 17.4038H42.913C44.2212 17.396 45.518 17.648 46.7282 18.1451C47.9384 18.6422 49.0379 19.3745 49.963 20.2996C50.8881 21.2247 51.6204 22.3242 52.1175 23.5344C52.6146 24.7446 52.8665 26.0414 52.8588 27.3496V42.8809Z" fill="#111111"/>
</svg>
