<svg width="60" height="60" viewBox="0 0 60 60" fill="none" xmlns="http://www.w3.org/2000/svg">
<g clip-path="url(#clip0_90_51)">
<path d="M29.9997 0.833496C13.8997 0.833496 0.833008 13.9002 0.833008 30.0002C0.833008 46.1002 13.8997 59.1668 29.9997 59.1668C46.0997 59.1668 59.1663 46.1002 59.1663 30.0002C59.1663 13.9002 46.0997 0.833496 29.9997 0.833496ZM43.533 20.6668C43.0955 25.2752 41.1997 36.4752 40.2372 41.6377C39.8288 43.8252 39.0122 44.5543 38.2538 44.6418C36.5622 44.7877 35.2788 43.5335 33.6455 42.4543C31.0788 40.7627 29.6205 39.7127 27.1413 38.0793C24.2538 36.1835 26.1205 35.1335 27.783 33.4418C28.2205 33.0043 35.6872 26.2085 35.833 25.596C35.8533 25.5032 35.8506 25.4069 35.8252 25.3154C35.7997 25.2239 35.7524 25.14 35.6872 25.071C35.5122 24.9252 35.2788 24.9835 35.0747 25.0127C34.8122 25.071 30.7288 27.7835 22.7663 33.1502C21.5997 33.9377 20.5497 34.346 19.6163 34.3168C18.5663 34.2877 16.583 33.7335 15.0955 33.2377C13.258 32.6543 11.8288 32.3335 11.9455 31.3127C12.0038 30.7877 12.733 30.2627 14.1038 29.7085C22.6205 26.0043 28.2788 23.5543 31.108 22.3877C39.2163 19.0043 40.8788 18.421 41.9872 18.421C42.2205 18.421 42.7747 18.4793 43.1247 18.771C43.4163 19.0043 43.5038 19.3252 43.533 19.5585C43.5038 19.7335 43.5622 20.2585 43.533 20.6668Z" fill="#111111"/>
</g>
<defs>
<clipPath id="clip0_90_51">
<rect width="60" height="60" fill="white"/>
</clipPath>
</defs>
</svg>
