<svg width="70" height="70" viewBox="0 0 70 70" fill="none" xmlns="http://www.w3.org/2000/svg">
<path d="M34.9997 5.8335C18.8997 5.8335 5.83301 18.9002 5.83301 35.0002C5.83301 51.1002 18.8997 64.1668 34.9997 64.1668C51.0997 64.1668 64.1663 51.1002 64.1663 35.0002C64.1663 18.9002 51.0997 5.8335 34.9997 5.8335ZM48.533 25.6668C48.0955 30.2752 46.1997 41.4752 45.2372 46.6377C44.8288 48.8252 44.0122 49.5543 43.2538 49.6418C41.5622 49.7877 40.2788 48.5335 38.6455 47.4543C36.0788 45.7627 34.6205 44.7127 32.1413 43.0793C29.2538 41.1835 31.1205 40.1335 32.783 38.4418C33.2205 38.0043 40.6872 31.2085 40.833 30.596C40.8533 30.5032 40.8506 30.4069 40.8252 30.3154C40.7997 30.2239 40.7524 30.14 40.6872 30.071C40.5122 29.9252 40.2788 29.9835 40.0747 30.0127C39.8122 30.071 35.7288 32.7835 27.7663 38.1502C26.5997 38.9377 25.5497 39.346 24.6163 39.3168C23.5663 39.2877 21.583 38.7335 20.0955 38.2377C18.258 37.6543 16.8288 37.3335 16.9455 36.3127C17.0038 35.7877 17.733 35.2627 19.1038 34.7085C27.6205 31.0043 33.2788 28.5543 36.108 27.3877C44.2163 24.0043 45.8788 23.421 46.9872 23.421C47.2205 23.421 47.7747 23.4793 48.1247 23.771C48.4163 24.0043 48.5038 24.3252 48.533 24.5585C48.5038 24.7335 48.5622 25.2585 48.533 25.6668Z" fill="#111111"/>
</svg>
