<svg width="60" height="60" viewBox="0 0 60 60" fill="none" xmlns="http://www.w3.org/2000/svg">
<path d="M30.0002 1.2002C14.0942 1.2002 1.2002 14.0942 1.2002 30.0002C1.2002 45.9062 14.0942 58.8002 30.0002 58.8002C45.9062 58.8002 58.8002 45.9062 58.8002 30.0002C58.8002 14.0942 45.9062 1.2002 30.0002 1.2002ZM41.0762 33.6932C41.0762 33.6932 43.6232 36.2072 44.2502 37.3742C44.2682 37.3982 44.2772 37.4222 44.2832 37.4342C44.5382 37.8632 44.5982 38.1962 44.4722 38.4452C44.2622 38.8592 43.5422 39.0632 43.2962 39.0812H38.7962C38.4842 39.0812 37.8302 39.0002 37.0382 38.4542C36.4292 38.0282 35.8292 37.3292 35.2442 36.6482C34.3712 35.6342 33.6152 34.7582 32.8532 34.7582C32.7564 34.758 32.6602 34.7732 32.5682 34.8032C31.9922 34.9892 31.2542 35.8112 31.2542 38.0012C31.2542 38.6852 30.7142 39.0782 30.3332 39.0782H28.2722C27.5702 39.0782 23.9132 38.8322 20.6732 35.4152C16.7072 31.2302 13.1372 22.8362 13.1072 22.7582C12.8822 22.2152 13.3472 21.9242 13.8542 21.9242H18.3992C19.0052 21.9242 19.2032 22.2932 19.3412 22.6202C19.5032 23.0012 20.0972 24.5162 21.0722 26.2202C22.6532 28.9982 23.6222 30.1262 24.3992 30.1262C24.5449 30.1245 24.688 30.0874 24.8162 30.0182C25.8302 29.4542 25.6412 25.8392 25.5962 25.0892C25.5962 24.9482 25.5932 23.4722 25.0742 22.7642C24.7022 22.2512 24.0692 22.0562 23.6852 21.9842C23.8406 21.7697 24.0454 21.5958 24.2822 21.4772C24.9782 21.1292 26.2322 21.0782 27.4772 21.0782H28.1702C29.5202 21.0962 29.8682 21.1832 30.3572 21.3062C31.3472 21.5432 31.3682 22.1822 31.2812 24.3692C31.2542 24.9902 31.2272 25.6922 31.2272 26.5202C31.2272 26.7002 31.2182 26.8922 31.2182 27.0962C31.1882 28.2092 31.1522 29.4722 31.9382 29.9912C32.0407 30.0555 32.1592 30.0898 32.2802 30.0902C32.5532 30.0902 33.3752 30.0902 35.6012 26.2712C36.2877 25.042 36.8843 23.7646 37.3862 22.4492C37.4312 22.3712 37.5632 22.1312 37.7192 22.0382C37.8343 21.9795 37.962 21.9496 38.0912 21.9512H43.4342C44.0162 21.9512 44.4152 22.0382 44.4902 22.2632C44.6222 22.6202 44.4662 23.7092 42.0272 27.0122L40.9382 28.4492C38.7272 31.3472 38.7272 31.4942 41.0762 33.6932Z" fill="#DCA70F"/>
</svg>
